<svg xmlns="http://www.w3.org/2000/svg" enable-background="new 0 0 512 512" viewBox="0 0 512 512"><path d="M256.2,294.6c14.5,0,26.2-13.8,26.2-30.8s-11.8-30.8-26.2-30.8S230,246.9,230,263.8S241.8,294.6,256.2,294.6z M256.2,240.8
		c10.2,0,18.5,10.3,18.5,23c0,12.7-8.3,23-18.5,23s-18.5-10.3-18.5-23S246,240.8,256.2,240.8L256.2,240.8z"/><path d="M256,26.7c-108,0-195.9,83.9-195.9,187c0,33.1,10.4,68.1,30.8,103.9c16.6,29,39.7,58.7,68.8,88.1
		c29.5,29.6,61.8,56.5,96.3,80.1c34.6-23.7,66.9-50.6,96.5-80.3c29.1-29.4,52.2-59,68.7-88c20.4-35.8,30.7-70.7,30.7-103.7
		C451.9,110.5,364,26.7,256,26.7z M256,375.9c-86.5,0-156.9-70.4-156.9-156.9S169.5,62.1,256,62.1S412.9,132.5,412.9,219
		S342.5,375.9,256,375.9L256,375.9z"/><path d="M256,78.1c-77.7,0-140.9,63.2-140.9,140.9S178.3,359.9,256,359.9S396.9,296.7,396.9,219S333.7,78.1,256,78.1z M239,115.5
		v-10.3c0-0.5,1.3-1.2,1.8-2.2h31.9c0.5,1,1.3,1.7,1.3,2.2V119c0,0.5-0.8,1-1.3,1h-31.9c-0.5,0-1.8-0.4-1.8-1V115.5z M271.5,176.3
		c-0.1,0-0.1-0.3-0.2-0.3h-30.1c-0.1,0-0.1,0.3-0.2,0.3l3.3-47.3h23.9L271.5,176.3z M287,330.7c0,0.5-0.2,1.3-0.8,1.3h-60
		c-0.6-0.1-1.1-0.6-1.2-1.3V327h62V330.7z M295,313.8c0,3.2-1.2,6.2-4.4,6.2h-68.7c-3.2,0-4.9-3-4.9-6.2V310h78V313.8z M295,302h-78
		v-75h78V302z M295,218h-78v-10c0-13.8,10.4-25,24.2-25h30.1c13.8,0,23.7,11.2,23.7,25V218z"/></svg>