<svg xmlns="http://www.w3.org/2000/svg" width="32" height="32" viewBox="0 0 8.467 8.467"><g transform="translate(269.83 -575.58)"><path fill="#586597" d="m -264.63604,576.3726 c -0.18102,0 -0.32776,0.1488 -0.33176,0.32607 a 0.13231496,0.13230809 0 0 0 0,0.004 v 0.26405 a 0.13231496,0.13230809 0 0 0 0.0925,0.1266 c -0.0103,0.20233 -0.0636,1.246 -0.11575,1.77925 -0.004,0.0394 -0.0767,0.16708 -0.15658,0.26199 -0.08,0.0949 -0.15608,0.16586 -0.15608,0.16586 l -0.004,0.003 -0.003,0.003 c -0.0957,0.0956 -0.15399,0.22971 -0.15399,0.37515 v 3.04271 c 0,0.29088 0.23826,0.52969 0.52917,0.52969 h 1.19165 c 0.29089,0 0.52917,-0.23881 0.52917,-0.52969 v -3.04271 c 0,-0.14542 -0.0604,-0.27956 -0.15606,-0.37515 0,0 -0.0727,-0.0722 -0.14883,-0.16796 -0.0761,-0.0958 -0.14745,-0.2244 -0.15245,-0.26768 -0.0658,-0.5289 -0.12033,-1.57432 -0.13074,-1.77612 a 0.13231496,0.13230809 0 0 0 0.092,-0.1261 v -0.26406 c 0,-0.18095 -0.15133,-0.32969 -0.33228,-0.32969 z" color="#000" font-family="sans-serif" font-weight="400" overflow="visible" white-space="normal" style="line-height:normal;font-variant-ligatures:normal;font-variant-position:normal;font-variant-caps:normal;font-variant-numeric:normal;font-variant-alternates:normal;font-feature-settings:normal;text-indent:0;text-align:start;text-decoration-line:none;text-decoration-style:solid;text-decoration-color:#000;text-transform:none;text-orientation:mixed;shape-padding:0;isolation:auto;mix-blend-mode:normal"/><path fill="#ffdddb" d="m -264.63604,576.63615 h 0.59376 c 0.0389,0 0.0667,0.0272 0.0667,0.0661 v 0.13279 h -0.72657 v -0.12867 c 0,-0.0424 0.0273,-0.0703 0.0661,-0.0703 z" color="#000" font-family="sans-serif" font-weight="400" overflow="visible" white-space="normal" style="line-height:normal;font-variant-ligatures:normal;font-variant-position:normal;font-variant-caps:normal;font-variant-numeric:normal;font-variant-alternates:normal;font-feature-settings:normal;text-indent:0;text-align:start;text-decoration-line:none;text-decoration-style:solid;text-decoration-color:#000;text-transform:none;text-orientation:mixed;shape-padding:0;isolation:auto;mix-blend-mode:normal"/><path fill="#dab3b3" d="m -264.61124,577.09917 h 0.54313 c 0.004,0.0849 0.0137,0.26958 0.0346,0.59582 h -0.61083 c 0.019,-0.32631 0.0288,-0.51078 0.0331,-0.59582 z" color="#000" font-family="sans-serif" font-weight="400" overflow="visible" white-space="normal" style="line-height:normal;font-variant-ligatures:normal;font-variant-position:normal;font-variant-caps:normal;font-variant-numeric:normal;font-variant-alternates:normal;font-feature-settings:normal;text-indent:0;text-align:start;text-decoration-line:none;text-decoration-style:solid;text-decoration-color:#000;text-transform:none;text-orientation:mixed;shape-padding:0;isolation:auto;mix-blend-mode:normal"/><path fill="#c19999" d="m -264.66239,577.95854 h 0.64802 c 0.0238,0.34226 0.0512,0.69818 0.0816,0.9431 0.0199,0.16002 0.11796,0.28861 0.20516,0.39841 0.0872,0.10981 0.17209,0.19172 0.17209,0.19172 0.0478,0.0478 0.076,0.11269 0.076,0.18709 v 3.04321 c 0,0.14888 -0.11467,0.26355 -0.26355,0.26355 h -1.19165 c -0.14888,0 -0.26355,-0.11467 -0.26355,-0.26355 v -3.04321 c 0,-0.0745 0.0281,-0.13928 0.076,-0.18709 0.004,-0.003 0.0873,-0.0801 0.17777,-0.18756 0.0925,-0.10978 0.19857,-0.23868 0.21497,-0.40619 0.0233,-0.23884 0.0462,-0.60296 0.0672,-0.93948 z" color="#000" font-family="sans-serif" font-weight="400" overflow="visible" white-space="normal" style="line-height:normal;font-variant-ligatures:normal;font-variant-position:normal;font-variant-caps:normal;font-variant-numeric:normal;font-variant-alternates:normal;font-feature-settings:normal;text-indent:0;text-align:start;text-decoration-line:none;text-decoration-style:solid;text-decoration-color:#000;text-transform:none;text-orientation:mixed;shape-padding:0;isolation:auto;mix-blend-mode:normal"/><path fill="#586597" d="m -264.2726,579.81198 c 0.38194,0 0.66021,0.36973 0.66021,0.79299 v 1.05862 c 0,0.42326 -0.27827,0.79299 -0.66021,0.79299 h -0.13282 c -0.38194,0 -0.66216,-0.36973 -0.66216,-0.79299 v -1.05862 c 0,-0.42326 0.28022,-0.79299 0.66216,-0.79299 z" color="#000" font-family="sans-serif" font-weight="400" overflow="visible" white-space="normal" style="line-height:normal;font-variant-ligatures:normal;font-variant-position:normal;font-variant-caps:normal;font-variant-numeric:normal;font-variant-alternates:normal;font-feature-settings:normal;text-indent:0;text-align:start;text-decoration-line:none;text-decoration-style:solid;text-decoration-color:#000;text-transform:none;text-orientation:mixed;shape-padding:0;isolation:auto;mix-blend-mode:normal"/><path fill="#fbd67e" d="m -264.2726,580.07566 h -0.13282 c -0.20443,0 -0.39652,0.21966 -0.39652,0.52931 v 1.05862 c 0,0.30965 0.19209,0.52931 0.39652,0.52931 h 0.13282 c 0.20441,0 0.39651,-0.21966 0.39651,-0.52931 v -1.05862 c 0,-0.30965 -0.1921,-0.52931 -0.39651,-0.52931 z" color="#000" font-family="sans-serif" font-weight="400" overflow="visible" white-space="normal" style="line-height:normal;font-variant-ligatures:normal;font-variant-position:normal;font-variant-caps:normal;font-variant-numeric:normal;font-variant-alternates:normal;font-feature-settings:normal;text-indent:0;text-align:start;text-decoration-line:none;text-decoration-style:solid;text-decoration-color:#000;text-transform:none;text-orientation:mixed;shape-padding:0;isolation:auto;mix-blend-mode:normal"/><path fill="#586597" style="line-height:normal;font-variant-ligatures:normal;font-variant-position:normal;font-variant-caps:normal;font-variant-numeric:normal;font-variant-alternates:normal;font-feature-settings:normal;text-indent:0;text-align:start;text-decoration-line:none;text-decoration-style:solid;text-decoration-color:#000;text-transform:none;text-orientation:mixed;shape-padding:0;isolation:auto;mix-blend-mode:normal" d="M-269.11021 582.32793a.13231496.13230809 0 0 0-.0898.041l-.0937.0937a.13231496.13230809 0 1 0 .18751.18556l.0937-.0918a.13231496.13230809 0 0 0-.0977-.22851zM-268.6551 581.86112a.13231496.13230809 0 0 0-.0781.0391l-.0937.0937a.13259657.13258969 0 1 0 .18752.18751l.0937-.0937a.13231496.13230809 0 0 0-.10939-.22656zM-269.21569 581.86112a.13231496.13230809 0 0 0-.0781.22656l.0937.0937a.13259657.13258969 0 1 0 .18752-.18751l-.0937-.0937a.13231496.13230809 0 0 0-.10939-.0391zM-268.73323 582.32793a.13231496.13230809 0 0 0-.0937.22851l.0937.0918a.13231496.13230809 0 1 0 .18751-.18556l-.0937-.0937a.13231496.13230809 0 0 0-.0937-.041zM-262.02138 577.82599a.13265492.13282 0 1 0 0 .26564h.12875a.13265492.13282 0 1 0 0-.26564zM-262.68269 577.82599a.13265492.13282 0 1 0 0 .26564h.12875a.13265492.13282 0 1 0 0-.26564z" color="#000" font-family="sans-serif" font-weight="400" overflow="visible" white-space="normal"/><path fill="#586597" d="M-262.81781 577.03325a.13213043.13229487 0 0 1-.13213.1323.13213043.13229487 0 0 1-.13213-.1323.13213043.13229487 0 0 1 .13213-.13229.13213043.13229487 0 0 1 .13213.13229zM-262.02571 579.14996a.13213043.13229487 0 0 1-.13213.1323.13213043.13229487 0 0 1-.13213-.1323.13213043.13229487 0 0 1 .13213-.13229.13213043.13229487 0 0 1 .13213.13229z"/><path fill="#586597" d="M-262.15495 578.22636a.13265313.13281821 0 1 0-.2653 0v.12891a.13265313.13281821 0 1 0 .2653 0zM-262.15495 577.56423a.13265313.13281821 0 1 0-.2653 0v.12892a.13265313.13281821 0 1 0 .2653 0z" color="#000" font-family="sans-serif" font-weight="400" overflow="visible" white-space="normal" style="line-height:normal;font-variant-ligatures:normal;font-variant-position:normal;font-variant-caps:normal;font-variant-numeric:normal;font-variant-alternates:normal;font-feature-settings:normal;text-indent:0;text-align:start;text-decoration-line:none;text-decoration-style:solid;text-decoration-color:#000;text-transform:none;text-orientation:mixed;shape-padding:0;isolation:auto;mix-blend-mode:normal"/><path fill="#586597" d="M-265.46384 577.82702a.13230174.13229487 0 0 0-.1323-.1323.13230174.13229487 0 0 0-.1323.1323.13230174.13229487 0 0 0 .1323.13229.13230174.13229487 0 0 0 .1323-.13229zM-269.16829 580.14219a.13230174.13229487 0 0 0-.1323-.13231.13230174.13229487 0 0 0-.1323.13231.13230174.13229487 0 0 0 .1323.13229.13230174.13229487 0 0 0 .1323-.13229z"/><g transform="translate(8.85 -.921)"><path fill="#586597" d="m -276.52193,578.223 c -0.35697,0 -0.65561,0.25665 -0.7183,0.59222 -0.26673,0.0106 -0.48263,0.2181 -0.50592,0.47852 -0.0562,0.0294 -0.10899,0.0641 -0.15348,0.10801 -0.11404,0.11274 -0.185,0.27088 -0.185,0.44233 0,0.34292 0.28394,0.62322 0.63097,0.62322 0.0807,0 0.15773,-0.0164 0.22893,-0.0439 v 1.10226 c 0,0.24254 0.12506,0.41084 0.22427,0.54311 0.0992,0.13229 0.17209,0.2286 0.17209,0.38293 v 1.02216 c -0.16661,0.25046 -0.1429,0.45178 -0.13074,0.57928 a 0.13230489,0.13230489 0 0 0 0.13074,0.11938 h 1.72082 a 0.13230489,0.13230489 0 0 0 0.12868,-0.0997 c 0.0503,-0.20106 -0.002,-0.40841 -0.12868,-0.59634 v -1.02476 c 0,-0.15433 0.0724,-0.25064 0.17157,-0.38293 0.0992,-0.13227 0.22479,-0.30057 0.22479,-0.54311 v -1.70589 a 0.1331782,0.13155735 0 0 0 5.3e-4,-0.0124 c 0,-0.003 -10e-4,-0.005 -10e-4,-0.008 a 0.13230489,0.13230489 0 0 0 -0.001,-0.0124 c -0.006,-0.20744 -0.0948,-0.39765 -0.23616,-0.53383 -0.0727,-0.07 -0.15881,-0.12615 -0.25476,-0.16536 h -0.002 c -0.008,-0.003 -0.0146,-0.005 -0.0222,-0.008 -0.0568,-0.1492 -0.15959,-0.2689 -0.27647,-0.35399 -0.10611,-0.0773 -0.23725,-0.12129 -0.37775,-0.12094 -0.12406,-0.22588 -0.36333,-0.38187 -0.64027,-0.38187 z" color="#000" font-family="sans-serif" font-weight="400" overflow="visible" white-space="normal" style="line-height:normal;font-variant-ligatures:normal;font-variant-position:normal;font-variant-caps:normal;font-variant-numeric:normal;font-variant-alternates:normal;font-feature-settings:normal;text-indent:0;text-align:start;text-decoration-line:none;text-decoration-style:solid;text-decoration-color:#000;text-transform:none;text-orientation:mixed;shape-padding:0;isolation:auto;mix-blend-mode:normal"/><path fill="#fcdbb7" d="m -276.52193,578.48602 c 0.25806,0 0.46509,0.20413 0.46509,0.45943 0,0.0638 -0.0132,0.12393 -0.0367,0.17878 -0.0117,0.0274 -0.0262,0.0526 -0.0429,0.077 a 0.13346843,0.13184405 0 0 0 0.22065,0.1483 c 0.0263,-0.0384 0.0492,-0.0802 0.0677,-0.12351 0.037,-0.0865 0.0574,-0.18127 0.0574,-0.28059 0,-0.023 -0.005,-0.0448 -0.007,-0.0672 0.0488,0.0116 0.0956,0.0302 0.13642,0.0599 0.10239,0.0745 0.17935,0.17343 0.20464,0.29506 0.006,0.0313 0.01,0.0625 0.01,0.093 3e-5,0.0304 -0.003,0.0597 -0.009,0.0889 a 0.13311743,0.13149731 0 1 0 0.26045,0.0522 c 0.004,-0.0217 0.005,-0.0447 0.007,-0.0672 0.0183,0.0138 0.037,0.0267 0.0532,0.0424 0.0657,0.0633 0.1122,0.14317 0.13694,0.23151 h -0.77205 c -0.21756,0 -0.39687,0.17931 -0.39687,0.39688 v 1.05833 c 0,0.0747 -0.0584,0.1328 -0.13281,0.1328 -0.0745,0 -0.13074,-0.0581 -0.13074,-0.1328 0,-0.14613 0,-1.05833 0,-1.05833 0,-0.21757 -0.18086,-0.39688 -0.39843,-0.39688 h -0.26355 a 0.13230489,0.13230489 0 0 0 -0.0139,0 0.13230489,0.13230489 0 0 0 -0.11885,0.1328 v 0.31472 c -0.0627,0.0508 -0.1409,0.0827 -0.22893,0.0827 -0.20305,0 -0.36484,-0.1593 -0.36484,-0.3602 0,-0.10044 0.0413,-0.19087 0.10749,-0.2563 0.006,-0.006 0.0126,-0.01 0.0186,-0.0151 0.0258,0.0505 0.0577,0.0979 0.0977,0.13745 a 0.13319229,0.13157127 0 1 0 0.1881,-0.18603 c -0.0482,-0.0477 -0.078,-0.11176 -0.078,-0.18503 0,-0.1465 0.11705,-0.26302 0.2651,-0.26302 0.074,0 0.14046,0.0293 0.18862,0.077 a 0.13319229,0.13157127 0 1 0 0.1881,-0.18603 c -0.0394,-0.0389 -0.0865,-0.0698 -0.13694,-0.0951 0.0354,-0.21966 0.22523,-0.38603 0.45785,-0.38603 z" color="#000" font-family="sans-serif" font-weight="400" overflow="visible" white-space="normal" style="line-height:normal;font-variant-ligatures:normal;font-variant-position:normal;font-variant-caps:normal;font-variant-numeric:normal;font-variant-alternates:normal;font-feature-settings:normal;text-indent:0;text-align:start;text-decoration-line:none;text-decoration-style:solid;text-decoration-color:#000;text-transform:none;text-orientation:mixed;shape-padding:0;isolation:auto;mix-blend-mode:normal"/><path fill="#f6c490" d="m -276.95911,579.9397 h 0.13074 c 0.0745,0 0.1328,0.0566 0.1328,0.13126 0,0 0,0.91218 0,1.05833 10e-6,0.21754 0.1788,0.39635 0.39636,0.39635 0.21757,0 0.39688,-0.17881 0.39688,-0.39635 v -1.05833 c 0,-0.0747 0.0583,-0.13126 0.13281,-0.13126 h 0.79478 v 1.58594 c 0,0.15433 -0.0729,0.2527 -0.17208,0.38499 -0.0992,0.13229 -0.22634,0.29853 -0.22634,0.54105 v 1.05833 a 0.13230489,0.13230489 0 0 0 0.0274,0.0801 c 0.0879,0.11724 0.0859,0.21667 0.0837,0.31885 h -1.40405 c -0.009,-0.0904 -0.0398,-0.15915 0.078,-0.31885 a 0.13230489,0.13230489 0 0 0 0.0253,-0.0801 v -1.05833 c 0,-0.24254 -0.12557,-0.40876 -0.22479,-0.54105 -0.0992,-0.13229 -0.17156,-0.23066 -0.17156,-0.38499 z" color="#000" font-family="sans-serif" font-weight="400" overflow="visible" white-space="normal" style="line-height:normal;font-variant-ligatures:normal;font-variant-position:normal;font-variant-caps:normal;font-variant-numeric:normal;font-variant-alternates:normal;font-feature-settings:normal;text-indent:0;text-align:start;text-decoration-line:none;text-decoration-style:solid;text-decoration-color:#000;text-transform:none;text-orientation:mixed;shape-padding:0;isolation:auto;mix-blend-mode:normal"/><path fill="#586597" d="M-277.09204 580.6001v.26562h.5293v-.26562zM-275.95994 580.6001v.26562h1.11595v-.26562z" color="#000" font-family="sans-serif" font-weight="400" overflow="visible" white-space="normal" style="line-height:normal;font-variant-ligatures:normal;font-variant-position:normal;font-variant-caps:normal;font-variant-numeric:normal;font-variant-alternates:normal;font-feature-settings:normal;text-indent:0;text-align:start;text-decoration-line:none;text-decoration-style:solid;text-decoration-color:#000;text-transform:none;text-orientation:mixed;shape-padding:0;isolation:auto;mix-blend-mode:normal"/><path fill="#f3ece7" d="M-275.57065 581.82405a.16536442.16548634 0 0 1-.16536.16548.16536442.16548634 0 0 1-.16537-.16548.16536442.16548634 0 0 1 .16537-.16549.16536442.16548634 0 0 1 .16536.16549zM-275.83528 582.68391a.16536442.16548634 0 0 1-.16537.16548.16536442.16548634 0 0 1-.16536-.16548.16536442.16548634 0 0 1 .16536-.16549.16536442.16548634 0 0 1 .16537.16549zM-276.95932 579.93982v.67696h.26355v-.5457c0-.0747-.0583-.13126-.13279-.13126zM-275.76973 579.93982c-.0745 0-.13279.0566-.13279.13126v.5457h.92757v-.67696z"/></g></g></svg>